<svg width="29" height="26" fill="none" xmlns="http://www.w3.org/2000/svg"><path d="M6.481 14.083h13.1l-5.723 5.287a1.034 1.034 0 0 0 0 1.538 1.237 1.237 0 0 0 1.654 0l7.73-7.139a1.022 1.022 0 0 0 0-1.527l-7.718-7.15a1.219 1.219 0 0 0-.827-.317c-.31 0-.608.114-.827.317a1.022 1.022 0 0 0 0 1.527l5.712 5.298H6.48c-.645 0-1.173.487-1.173 1.083s.528 1.083 1.173 1.083Z" fill="#37474F"/><mask id="a" style="mask-type:alpha" maskUnits="userSpaceOnUse" x="5" y="4" width="19" height="18"><path d="M6.481 14.083h13.1l-5.723 5.287a1.034 1.034 0 0 0 0 1.538 1.237 1.237 0 0 0 1.654 0l7.73-7.139a1.022 1.022 0 0 0 0-1.527l-7.718-7.15a1.219 1.219 0 0 0-.827-.317c-.31 0-.608.114-.827.317a1.022 1.022 0 0 0 0 1.527l5.712 5.298H6.48c-.645 0-1.173.487-1.173 1.083s.528 1.083 1.173 1.083Z" fill="#fff"/></mask></svg>