<svg width="13" height="21" fill="none" xmlns="http://www.w3.org/2000/svg"><path d="M3.484 20.726H7.79v-8.622h3.879l.426-4.284H7.79V5.656c0-.594.481-1.076 1.076-1.076h3.23V.274h-3.23a5.382 5.382 0 0 0-5.382 5.382V7.82H1.33l-.426 4.284h2.579v8.622Z" fill="#3C5B9A"/><mask id="a" style="mask-type:alpha" maskUnits="userSpaceOnUse" x="0" y="0" width="13" height="21"><path d="M3.484 20.726H7.79v-8.622h3.879l.426-4.284H7.79V5.656c0-.594.481-1.076 1.076-1.076h3.23V.274h-3.23a5.382 5.382 0 0 0-5.382 5.382V7.82H1.33l-.426 4.284h2.579v8.622Z" fill="#fff"/></mask></svg>