<svg width="15" height="16" viewBox="0 0 15 16" fill="none" xmlns="http://www.w3.org/2000/svg">
<path fill-rule="evenodd" clip-rule="evenodd" d="M3.38749 3.66447H4.83124V2.9046H10.6062V3.66447H12.05V2.9046H13.4937V5.18421H1.94375V2.9046H3.38749V3.66447ZM1.94375 6.70395V14.3026H13.4937V6.70395H1.94375ZM4.83124 1.38487H10.6062V0.625H12.05V1.38487H13.4938C14.2911 1.38487 14.9375 2.06528 14.9375 2.90461V14.3026C14.9375 15.142 14.2911 15.8224 13.4938 15.8224H1.94375C1.14639 15.8224 0.5 15.142 0.5 14.3026V2.90461C0.5 2.06528 1.14639 1.38487 1.94375 1.38487H3.38749V0.625H4.83124V1.38487Z" fill="#565656"/>
</svg>
